<?xml version="1.0" encoding="UTF-8" standalone="no"?><svg xmlns:dc="http://purl.org/dc/elements/1.1/" xmlns:cc="http://creativecommons.org/ns#" xmlns:rdf="http://www.w3.org/1999/02/22-rdf-syntax-ns#" xmlns:svg="http://www.w3.org/2000/svg" xmlns="http://www.w3.org/2000/svg" xmlns:sodipodi="http://sodipodi.sourceforge.net/DTD/sodipodi-0.dtd" xmlns:inkscape="http://www.inkscape.org/namespaces/inkscape" width="32" height="32" viewBox="0 0 32 32.000001" id="svg13527" version="1.1" inkscape:version="0.91 r13725" sodipodi:docname="clouds-storm-stormy-wind-windy-cloud-forecast.svg"><sodipodi:namedview id="base" pagecolor="#ffffff" bordercolor="#666666" borderopacity="1.0" inkscape:pageopacity="0.0" inkscape:pageshadow="2" inkscape:zoom="9.0642251" inkscape:cx="-12.578316" inkscape:cy="14.964768" inkscape:document-units="px" inkscape:current-layer="layer1" showgrid="true" inkscape:window-width="1366" inkscape:window-height="716" inkscape:window-x="-8" inkscape:window-y="-8" inkscape:window-maximized="1" units="px" inkscape:object-nodes="true"><inkscape:grid type="xygrid" id="grid13559" empspacing="4"/></sodipodi:namedview><g inkscape:label="Layer 1" inkscape:groupmode="layer" id="layer1" transform="translate(0,-1020.3622)"><g transform="translate(-964.00455,-212.50005)" id="g18801" fill="#3b3c3d" color="#000" font-style="normal" font-variant="normal" font-weight="normal" font-stretch="normal" font-size="medium" font-family="sans-serif" letter-spacing="normal" word-spacing="normal" direction="ltr" writing-mode="lr-tb" text-anchor="start" white-space="normal" clip-rule="nonzero" visibility="visible" color-interpolation="sRGB" color-interpolation-filters="linearRGB" fill-opacity="1" stroke="none" stroke-linecap="round" stroke-linejoin="round" stroke-miterlimit="4" stroke-dasharray="none" stroke-dashoffset="0" stroke-opacity="1" color-rendering="auto" image-rendering="auto" shape-rendering="auto" text-rendering="auto"><path inkscape:connector-curvature="0" style="line-height:normal;text-indent:0;text-align:start;text-decoration-line:none;text-decoration-style:solid;text-decoration-color:#000000;text-transform:none;isolation:auto;mix-blend-mode:normal" d="M979.86 1235.363c-.558.025-1.05.126-1.642.326-1.895.704-3.265 2.297-3.834 4.193-.195-.012-.39-.027-.586-.018-.463.022-1.058.086-1.639.31-2.83 1.009-4.546 3.907-4.078 6.888.455 2.894 2.857 5.043 5.744 5.24.07.036.148.057.227.057H981.243c1.983-.1 3.725-1.333 4.434-3.155a4.78 4.78 0 0 0 .234-.851h1.352c1.983-.104 3.717-1.398 4.418-3.285.7-1.887.242-4.02-1.17-5.438-1.15-1.145-2.87-1.585-4.998-.986-1.063-1.737-3.06-3.35-5.649-3.283z" id="path18789" text-decoration="none" baseline-shift="baseline" display="inline" overflow="visible" opacity="1" solid-color="#000000" solid-opacity="1" fill="#3b3c3d" fill-rule="nonzero" stroke-width="1"/><path inkscape:connector-curvature="0" style="line-height:normal;text-indent:0;text-align:start;text-decoration-line:none;text-decoration-style:solid;text-decoration-color:#000000;text-transform:none;isolation:auto;mix-blend-mode:normal" d="M979.886 1236.363h.01c2.27-.056 4.055 1.477 4.953 3.113.117.211.368.31.597.232 2.07-.69 3.397-.326 4.358.631a4.17 4.17 0 0 1 .94 4.383c-.566 1.524-1.952 2.553-3.532 2.635h-1.223a4.85 4.85 0 0 0-1.492-3.397c0-.01-.003-.01-.004-.01-1.16-1.08-2.95-1.583-5.008-.924-.962-1.494-2.46-2.6-4.103-3 .509-1.552 1.65-2.83 3.185-3.4a4.233 4.233 0 0 1 1.319-.264z" id="path18791" text-decoration="none" baseline-shift="baseline" display="inline" overflow="visible" opacity="1" solid-color="#000000" solid-opacity="1" fill="#c4c9d3" fill-rule="nonzero" stroke-width="1"/><path inkscape:connector-curvature="0" style="line-height:normal;text-indent:0;text-align:start;text-decoration-line:none;text-decoration-style:solid;text-decoration-color:#000000;text-transform:none;isolation:auto;mix-blend-mode:normal" d="M973.845 1240.865v.01c1.889-.09 3.923 1.12 4.963 2.966.118.207.4.337.627.262 1.955-.703 3.409-.31 4.37.584 1.137 1.089 1.503 2.714.94 4.16-.562 1.445-1.951 2.436-3.547 2.518h-7.049c-.026-.01-.052-.01-.078-.01a5.24 5.24 0 0 1-5.004-4.441 5.27 5.27 0 0 1 3.434-5.795c.004-.01.014-.01.014-.01.417-.163.919-.224 1.33-.243z" id="path18793" text-decoration="none" baseline-shift="baseline" display="inline" overflow="visible" opacity="1" solid-color="#000000" solid-opacity="1" fill="#e1e1e6" fill-rule="nonzero" stroke-width="1"/><path inkscape:connector-curvature="0" id="path18795" d="M989.504 1251.362a.5.5 0 1 0 0 1h1c.559 0 1 .442 1 1a.994.994 0 0 1-1.003 1h-16.497c-1.098 0-2 .901-2 2 0 1.108.91 1.987 1.995 2a.5.5 0 0 0 .006 0h13c.558 0 1 .442 1 1a.99.99 0 0 1-1.002.996h-.999a.5.5 0 1 0 0 1h1a.5.5 0 0 0 .002 0c1.109 0 2.003-.91 1.999-2 0-1.098-.902-2-2-2H974.01c-.564-.01-1.005-.428-1.005-1 0-.558.441-1 1-1h16.5a.5.5 0 0 0 .003 0 2.015 2.015 0 0 0 1.997-1.996c0-1.099-.902-2-2-2z" style="line-height:normal;text-indent:0;text-align:start;text-decoration-line:none;text-decoration-style:solid;text-decoration-color:#000000;text-transform:none;isolation:auto;mix-blend-mode:normal" text-decoration="none" baseline-shift="baseline" display="inline" overflow="visible" opacity="1" solid-color="#000000" solid-opacity="1" fill="#3b3c3d" fill-rule="evenodd" stroke-width="1px"/><path inkscape:connector-curvature="0" id="path18797" d="M992.004 1256.366a.5.5 0 1 0 0 1c.559 0 1 .442 1 1a.99.99 0 0 1-1.002.996.5.5 0 1 0 .004 1c1.109 0 2.003-.91 1.999-2 0-1.099-.902-2-2-2z" style="line-height:normal;text-indent:0;text-align:start;text-decoration-line:none;text-decoration-style:solid;text-decoration-color:#000000;text-transform:none;isolation:auto;mix-blend-mode:normal" text-decoration="none" baseline-shift="baseline" display="inline" overflow="visible" opacity="1" solid-color="#000000" solid-opacity="1" fill="#3b3c3d" fill-rule="evenodd" stroke-width="1px"/><path inkscape:connector-curvature="0" id="path18799" d="M968.003 1258.362a2.005 2.005 0 0 0-1.998 2.002 2.008 2.008 0 0 0 2 1.998h5.5a.5.5 0 1 0 0-1h-5.5c-.559 0-1-.442-1-1a.99.99 0 0 1 1.002-.998.5.5 0 1 0-.004-1z" style="line-height:normal;text-indent:0;text-align:start;text-decoration-line:none;text-decoration-style:solid;text-decoration-color:#000000;text-transform:none;isolation:auto;mix-blend-mode:normal" text-decoration="none" baseline-shift="baseline" display="inline" overflow="visible" opacity="1" solid-color="#000000" solid-opacity="1" fill="#3b3c3d" fill-rule="evenodd" stroke-width="1px"/></g></g><metadata><rdf:RDF xmlns:rdf="http://www.w3.org/1999/02/22-rdf-syntax-ns#" xmlns:rdfs="http://www.w3.org/2000/01/rdf-schema#" xmlns:dc="http://purl.org/dc/elements/1.1/"><rdf:Description about="https://iconscout.com/legal#licenses" dc:title="clouds,storm,stormy,wind,windy,cloud,forecast" dc:description="clouds,storm,stormy,wind,windy,cloud,forecast" dc:publisher="Iconscout" dc:date="2017-09-19" dc:format="image/svg+xml" dc:language="en"><dc:creator><rdf:Bag><rdf:li>Vignesh Oviyan</rdf:li></rdf:Bag></dc:creator></rdf:Description></rdf:RDF></metadata></svg>