<?xml version="1.0" encoding="UTF-8"?>
<svg xmlns="http://www.w3.org/2000/svg" xmlns:xlink="http://www.w3.org/1999/xlink" version="1.1" id="Layer_1" x="0px" y="0px" viewBox="0 0 24 24" style="enable-background:new 0 0 24 24;" xml:space="preserve">
<g>
	<path style="fill:#303C42;" d="M15,24c-4.962,0-9-4.038-9-9C6,8.046,14.311,0.449,14.665,0.13c0.19-0.173,0.48-0.173,0.671,0   C15.689,0.449,24,8.046,24,15C24,19.963,19.962,24,15,24z"/>
	<path style="fill:#BBDEFB;" d="M15,1.188C13.443,2.689,7,9.248,7,15c0,4.411,3.589,8,8,8s8-3.589,8-8   C23,9.244,16.558,2.688,15,1.188z"/>
	<path style="opacity:0.1;" d="M15.185,1.368C17.406,3.631,22.5,9.377,22.5,14.5c0,4.411-3.589,8-8,8   c-2.079,0-3.968-0.803-5.392-2.108C10.571,21.99,12.667,23,15,23c4.411,0,8-3.589,8-8C23,9.435,16.993,3.138,15.185,1.368z"/>
	<path style="opacity:0.2;fill:#FFFFFF;" d="M7.5,15.5c0-5.752,6.443-12.312,8-13.813c0.052,0.05,0.122,0.12,0.185,0.181   C15.41,1.589,15.171,1.353,15,1.188C13.443,2.689,7,9.248,7,15c0,2.333,1.01,4.429,2.608,5.892C8.303,19.468,7.5,17.579,7.5,15.5z"/>
	<g>
		<g>
			<path style="fill:#303C42;" d="M9.124,12c-0.876,0-1.346-0.327-1.724-0.589C7.07,11.181,6.809,11,6.247,11     c-0.562,0-0.822,0.181-1.151,0.41C4.718,11.673,4.248,12,3.372,12c-0.875,0-1.345-0.327-1.722-0.59C1.321,11.181,1.061,11,0.5,11     C0.224,11,0,10.776,0,10.5S0.224,10,0.5,10c0.875,0,1.345,0.327,1.722,0.59C2.551,10.819,2.811,11,3.372,11     c0.562,0,0.822-0.181,1.152-0.411C4.901,10.327,5.371,10,6.247,10c0.876,0,1.346,0.327,1.724,0.589C8.3,10.819,8.561,11,9.124,11     c0.562,0,0.823-0.181,1.152-0.411C10.654,10.327,11.124,10,12,10c0.276,0,0.5,0.224,0.5,0.5S12.276,11,12,11     c-0.563,0-0.823,0.181-1.153,0.411C10.469,11.673,9.999,12,9.124,12z"/>
		</g>
		<g>
			<path style="fill:#303C42;" d="M9.124,21c-0.876,0-1.346-0.327-1.724-0.589C7.07,20.181,6.809,20,6.247,20     c-0.562,0-0.822,0.181-1.151,0.41C4.718,20.673,4.248,21,3.372,21c-0.875,0-1.345-0.327-1.722-0.59C1.321,20.181,1.061,20,0.5,20     C0.224,20,0,19.776,0,19.5S0.224,19,0.5,19c0.875,0,1.345,0.327,1.722,0.59C2.551,19.819,2.811,20,3.372,20     c0.562,0,0.822-0.181,1.152-0.411C4.901,19.327,5.371,19,6.247,19c0.876,0,1.346,0.327,1.724,0.589C8.3,19.819,8.561,20,9.124,20     c0.562,0,0.823-0.181,1.152-0.411C10.654,19.327,11.124,19,12,19c0.276,0,0.5,0.224,0.5,0.5S12.276,20,12,20     c-0.563,0-0.823,0.181-1.153,0.411C10.469,20.673,9.999,21,9.124,21z"/>
		</g>
		<g>
			<path style="fill:#303C42;" d="M3.372,18c-0.875,0-1.345-0.327-1.722-0.59C1.321,17.181,1.061,17,0.5,17     C0.224,17,0,16.776,0,16.5S0.224,16,0.5,16c0.875,0,1.345,0.327,1.722,0.59C2.551,16.819,2.811,17,3.372,17     c0.276,0,0.5,0.224,0.5,0.5S3.648,18,3.372,18z"/>
		</g>
		<g>
			<path style="fill:#303C42;" d="M15,18c-0.864,0-1.345-0.308-1.77-0.579C12.863,17.186,12.572,17,12,17     c-0.563,0-0.823,0.181-1.153,0.411C10.469,17.673,9.999,18,9.124,18c-0.876,0-1.346-0.327-1.724-0.589     C7.07,17.181,6.809,17,6.247,17c-0.276,0-0.5-0.224-0.5-0.5S5.97,16,6.247,16c0.876,0,1.346,0.327,1.724,0.589     C8.3,16.819,8.561,17,9.124,17c0.562,0,0.823-0.181,1.152-0.411C10.654,16.327,11.124,16,12,16c0.864,0,1.345,0.308,1.77,0.579     C14.137,16.814,14.428,17,15,17c0.276,0,0.5,0.224,0.5,0.5S15.276,18,15,18z"/>
		</g>
		<g>
			<path style="fill:#303C42;" d="M3.372,15c-0.875,0-1.345-0.327-1.722-0.59C1.321,14.181,1.061,14,0.5,14     C0.224,14,0,13.776,0,13.5S0.224,13,0.5,13c0.875,0,1.345,0.327,1.722,0.59C2.551,13.819,2.811,14,3.372,14     c0.562,0,0.822-0.181,1.152-0.411C4.901,13.327,5.371,13,6.247,13c0.276,0,0.5,0.224,0.5,0.5S6.523,14,6.247,14     c-0.562,0-0.822,0.181-1.151,0.41C4.718,14.673,4.248,15,3.372,15z"/>
		</g>
		<g>
			<path style="fill:#303C42;" d="M14.872,15c-0.875,0-1.345-0.327-1.722-0.59C12.821,14.181,12.561,14,12,14     c-0.563,0-0.823,0.181-1.153,0.411C10.469,14.673,9.999,15,9.124,15c-0.276,0-0.5-0.224-0.5-0.5s0.224-0.5,0.5-0.5     c0.562,0,0.823-0.181,1.152-0.411C10.654,13.327,11.124,13,12,13c0.875,0,1.345,0.327,1.722,0.59     c0.329,0.229,0.589,0.41,1.15,0.41c0.562,0,0.822-0.181,1.152-0.411C16.401,13.327,16.871,13,17.747,13     c0.276,0,0.5,0.224,0.5,0.5s-0.224,0.5-0.5,0.5c-0.562,0-0.822,0.181-1.151,0.41C16.218,14.673,15.748,15,14.872,15z"/>
		</g>
	</g>
	<linearGradient id="SVGID_1_" gradientUnits="userSpaceOnUse" x1="1.5331" y1="7.1011" x2="23.7765" y2="17.4734">
		<stop offset="0" style="stop-color:#FFFFFF;stop-opacity:0.2"/>
		<stop offset="1" style="stop-color:#FFFFFF;stop-opacity:0"/>
	</linearGradient>
	<path style="fill:url(#SVGID_1_);" d="M0.5,17c0.561,0,0.821,0.181,1.15,0.41C2.027,17.673,2.497,18,3.372,18   c0.276,0,0.5-0.224,0.5-0.5S3.648,17,3.372,17c-0.561,0-0.821-0.181-1.15-0.41C1.845,16.327,1.375,16,0.5,16   C0.224,16,0,16.224,0,16.5S0.224,17,0.5,17z M15.335,0.13c-0.19-0.173-0.48-0.173-0.671,0c-0.271,0.246-5.222,4.783-7.512,10.023   C6.903,10.065,6.617,10,6.247,10c-0.875,0-1.345,0.327-1.723,0.589C4.194,10.819,3.934,11,3.372,11c-0.561,0-0.821-0.181-1.15-0.41   C1.845,10.327,1.375,10,0.5,10C0.224,10,0,10.224,0,10.5S0.224,11,0.5,11c0.561,0,0.821,0.181,1.15,0.41   C2.027,11.673,2.497,12,3.372,12c0.875,0,1.346-0.327,1.723-0.59C5.425,11.181,5.685,11,6.247,11c0.213,0,0.375,0.032,0.521,0.077   c-0.234,0.636-0.404,1.28-0.536,1.925c-0.865,0.004-1.333,0.327-1.708,0.588C4.194,13.819,3.934,14,3.372,14   c-0.561,0-0.821-0.181-1.15-0.41C1.845,13.327,1.375,13,0.5,13C0.224,13,0,13.224,0,13.5S0.224,14,0.5,14   c0.561,0,0.821,0.181,1.15,0.41C2.027,14.673,2.497,15,3.372,15c0.875,0,1.346-0.327,1.723-0.59   c0.29-0.202,0.539-0.359,0.975-0.395C6.035,14.344,6,14.673,6,15c0,0.351,0.025,0.696,0.065,1.037   C5.879,16.11,5.747,16.288,5.747,16.5c0,0.271,0.216,0.488,0.484,0.497c0.169,0.742,0.43,1.449,0.77,2.11   C6.784,19.046,6.545,19,6.247,19c-0.875,0-1.345,0.327-1.723,0.589C4.194,19.819,3.934,20,3.372,20c-0.561,0-0.821-0.181-1.15-0.41   C1.845,19.327,1.375,19,0.5,19C0.224,19,0,19.224,0,19.5S0.224,20,0.5,20c0.561,0,0.821,0.181,1.15,0.41   C2.027,20.673,2.497,21,3.372,21c0.875,0,1.346-0.327,1.723-0.59C5.425,20.181,5.685,20,6.247,20c0.563,0,0.823,0.181,1.153,0.411   c0.205,0.143,0.445,0.3,0.755,0.418C9.807,22.766,12.26,24,15,24c4.962,0,9-4.038,9-9C24,8.046,15.689,0.449,15.335,0.13z"/>
</g>
<g>
</g>
<g>
</g>
<g>
</g>
<g>
</g>
<g>
</g>
<g>
</g>
<g>
</g>
<g>
</g>
<g>
</g>
<g>
</g>
<g>
</g>
<g>
</g>
<g>
</g>
<g>
</g>
<g>
</g>

	<metadata>
		<rdf:RDF xmlns:rdf="http://www.w3.org/1999/02/22-rdf-syntax-ns#" xmlns:rdfs="http://www.w3.org/2000/01/rdf-schema#" xmlns:dc="http://purl.org/dc/elements/1.1/">
			<rdf:Description about="https://iconscout.com/legal#licenses" dc:title="weather; forcast; humidity; precipitation" dc:description="weather; forcast; humidity; precipitation" dc:publisher="Iconscout" dc:date="2017-03-22" dc:format="image/svg+xml" dc:language="en">
				<dc:creator>
					<rdf:Bag>
						<rdf:li>Alpár - Etele Méder</rdf:li>
					</rdf:Bag>
				</dc:creator>
			</rdf:Description>
		</rdf:RDF>
    </metadata></svg>
