<?xml version="1.0" encoding="UTF-8"?>
<svg xmlns="http://www.w3.org/2000/svg" xmlns:xlink="http://www.w3.org/1999/xlink" version="1.1" id="Layer_1" x="0px" y="0px" viewBox="0 0 24 24" style="enable-background:new 0 0 24 24;" xml:space="preserve">
<g>
	<path style="fill:#303C42;" d="M12,24C5.383,24,0,18.617,0,12S5.383,0,12,0s12,5.383,12,12S18.617,24,12,24z"/>
	<path style="fill:#5C6671;" d="M12,1C5.935,1,1,5.935,1,12s4.935,11,11,11s11-4.935,11-11S18.065,1,12,1z"/>
	<linearGradient id="SVGID_1_" gradientUnits="userSpaceOnUse" x1="2.0311" y1="7.3514" x2="21.9689" y2="16.6486">
		<stop offset="0" style="stop-color:#FFFFFF;stop-opacity:0.2"/>
		<stop offset="1" style="stop-color:#FFFFFF;stop-opacity:0"/>
	</linearGradient>
	<path style="fill:url(#SVGID_1_);" d="M12,1C5.935,1,1,5.935,1,12s4.935,11,11,11s11-4.935,11-11S18.065,1,12,1z"/>
	<linearGradient id="SVGID_2_" gradientUnits="userSpaceOnUse" x1="4.2255" y1="4.2255" x2="19.7745" y2="19.7745">
		<stop offset="0" style="stop-color:#FFFFFF;stop-opacity:0.2"/>
		<stop offset="1" style="stop-color:#FFFFFF;stop-opacity:0"/>
	</linearGradient>
	<path style="fill:url(#SVGID_2_);" d="M12,1C5.935,1,1,5.935,1,12s4.935,11,11,11s11-4.935,11-11S18.065,1,12,1z"/>
	<path style="opacity:0.1;" d="M1.75,12.75c0-6.065,4.935-11,11-11c2.842,0,5.427,1.093,7.382,2.868C18.118,2.402,15.223,1,12,1   C5.935,1,1,5.935,1,12c0,3.223,1.402,6.118,3.618,8.132C2.843,18.177,1.75,15.592,1.75,12.75z"/>
	
		<line style="fill:none;stroke:#303C42;stroke-linecap:round;stroke-linejoin:round;stroke-miterlimit:10;" x1="12" y1="2.5" x2="12" y2="3.5"/>
	
		<line style="fill:none;stroke:#303C42;stroke-linecap:round;stroke-linejoin:round;stroke-miterlimit:10;" x1="7.25" y1="3.773" x2="7.75" y2="4.639"/>
	
		<line style="fill:none;stroke:#303C42;stroke-linecap:round;stroke-linejoin:round;stroke-miterlimit:10;" x1="3.773" y1="7.25" x2="4.639" y2="7.75"/>
	
		<line style="fill:none;stroke:#303C42;stroke-linecap:round;stroke-linejoin:round;stroke-miterlimit:10;" x1="19.361" y1="16.25" x2="20.227" y2="16.75"/>
	
		<line style="fill:none;stroke:#303C42;stroke-linecap:round;stroke-linejoin:round;stroke-miterlimit:10;" x1="2.5" y1="12" x2="3.5" y2="12"/>
	
		<line style="fill:none;stroke:#303C42;stroke-linecap:round;stroke-linejoin:round;stroke-miterlimit:10;" x1="20.5" y1="12" x2="21.5" y2="12"/>
	
		<line style="fill:none;stroke:#303C42;stroke-linecap:round;stroke-linejoin:round;stroke-miterlimit:10;" x1="3.773" y1="16.75" x2="4.639" y2="16.25"/>
	
		<line style="fill:none;stroke:#303C42;stroke-linecap:round;stroke-linejoin:round;stroke-miterlimit:10;" x1="19.361" y1="7.75" x2="20.227" y2="7.25"/>
	
		<line style="fill:none;stroke:#303C42;stroke-linecap:round;stroke-linejoin:round;stroke-miterlimit:10;" x1="16.25" y1="4.639" x2="16.75" y2="3.773"/>
	<path style="fill:#303C42;" d="M12,20c-1.103,0-2-0.897-2-2c0-0.547,0.222-1.059,0.615-1.436l0.887-10.108   C11.524,6.198,11.741,6,12,6s0.476,0.198,0.498,0.456l0.887,10.108C13.778,16.941,14,17.453,14,18C14,19.103,13.103,20,12,20z"/>
	<path style="fill:#FF6F00;" d="M12,12.22l-0.407,4.635c-0.012,0.14-0.083,0.268-0.195,0.354C11.146,17.401,11,17.69,11,18   c0,0.551,0.449,1,1,1s1-0.449,1-1c0-0.31-0.146-0.599-0.398-0.792c-0.112-0.085-0.183-0.214-0.195-0.354L12,12.22z"/>
	<path style="opacity:0.1;" d="M12,18.625c-0.48,0-0.863-0.346-0.959-0.798C11.03,17.886,11,17.939,11,18c0,0.551,0.449,1,1,1   s1-0.449,1-1c0-0.061-0.03-0.114-0.041-0.173C12.863,18.279,12.48,18.625,12,18.625z"/>
	<linearGradient id="SVGID_3_" gradientUnits="userSpaceOnUse" x1="10.5655" y1="19.3898" x2="10.5789" y2="19.4032">
		<stop offset="0" style="stop-color:#000000;stop-opacity:0.1"/>
		<stop offset="1" style="stop-color:#000000;stop-opacity:0"/>
	</linearGradient>
	<path style="fill:url(#SVGID_3_);" d="M10.566,19.389l0,0.002l0.012,0.012C10.574,19.399,10.571,19.394,10.566,19.389z"/>
	<linearGradient id="SVGID_4_" gradientUnits="userSpaceOnUse" x1="8.6015" y1="9.9143" x2="19.1118" y2="20.4246">
		<stop offset="0" style="stop-color:#000000;stop-opacity:0.1"/>
		<stop offset="1" style="stop-color:#000000;stop-opacity:0"/>
	</linearGradient>
	<path style="fill:url(#SVGID_4_);" d="M12.358,6.158c0.076,0.08,0.13,0.181,0.14,0.298l0.887,10.108C13.778,16.941,14,17.453,14,18   c0,1.103-0.897,2-2,2c-0.547,0-1.042-0.221-1.404-0.578l3.389,3.389c3.768-0.691,6.865-3.303,8.241-6.785L12.358,6.158z"/>
	<linearGradient id="SVGID_5_" gradientUnits="userSpaceOnUse" x1="1.1249" y1="6.9289" x2="22.8751" y2="17.0711">
		<stop offset="0" style="stop-color:#FFFFFF;stop-opacity:0.2"/>
		<stop offset="1" style="stop-color:#FFFFFF;stop-opacity:0"/>
	</linearGradient>
	<path style="fill:url(#SVGID_5_);" d="M12,24C5.383,24,0,18.617,0,12S5.383,0,12,0s12,5.383,12,12S18.617,24,12,24z"/>
</g>
<g>
</g>
<g>
</g>
<g>
</g>
<g>
</g>
<g>
</g>
<g>
</g>
<g>
</g>
<g>
</g>
<g>
</g>
<g>
</g>
<g>
</g>
<g>
</g>
<g>
</g>
<g>
</g>
<g>
</g>

	<metadata>
		<rdf:RDF xmlns:rdf="http://www.w3.org/1999/02/22-rdf-syntax-ns#" xmlns:rdfs="http://www.w3.org/2000/01/rdf-schema#" xmlns:dc="http://purl.org/dc/elements/1.1/">
			<rdf:Description about="https://iconscout.com/legal#licenses" dc:title="weather; forcast; barometer; pressure; dashboard" dc:description="weather; forcast; barometer; pressure; dashboard" dc:publisher="Iconscout" dc:date="2017-03-22" dc:format="image/svg+xml" dc:language="en">
				<dc:creator>
					<rdf:Bag>
						<rdf:li>Alpár - Etele Méder</rdf:li>
					</rdf:Bag>
				</dc:creator>
			</rdf:Description>
		</rdf:RDF>
    </metadata></svg>
