<?xml version="1.0" encoding="UTF-8"?>
<svg xmlns="http://www.w3.org/2000/svg" xmlns:xlink="http://www.w3.org/1999/xlink" version="1.1" id="Layer_1" x="0px" y="0px" viewBox="0 0 24 24" style="enable-background:new 0 0 24 24;" xml:space="preserve">
<g>
	<path style="fill:#303C42;" d="M3.722,20.052c-0.171-0.085-0.375-0.065-0.525,0.051l-1.556,1.189C1.233,21.583,1,22.022,1,22.5   C1,23.327,1.673,24,2.5,24S4,23.327,4,22.5v-2C4,20.31,3.892,20.136,3.722,20.052z"/>
	<path style="fill:#BBDEFB;" d="M3,22.5C3,22.776,2.775,23,2.5,23S2,22.776,2,22.5c0-0.207,0.141-0.337,0.225-0.396   c0.006-0.004,0.012-0.008,0.017-0.012L3,21.512V22.5z"/>
	<path style="fill:#303C42;" d="M11.722,20.052c-0.172-0.085-0.375-0.065-0.525,0.051l-1.556,1.189C9.233,21.583,9,22.022,9,22.5   c0,0.827,0.673,1.5,1.5,1.5s1.5-0.673,1.5-1.5v-2C12,20.31,11.892,20.136,11.722,20.052z"/>
	<path style="fill:#BBDEFB;" d="M11,22.5c0,0.276-0.225,0.5-0.5,0.5S10,22.776,10,22.5c0-0.207,0.141-0.337,0.225-0.396   c0.006-0.004,0.012-0.008,0.017-0.012L11,21.512V22.5z"/>
	<path style="fill:#303C42;" d="M19.722,20.052c-0.172-0.085-0.375-0.065-0.525,0.051l-1.555,1.189C17.233,21.582,17,22.021,17,22.5   c0,0.827,0.673,1.5,1.5,1.5s1.5-0.673,1.5-1.5v-2C20,20.31,19.892,20.136,19.722,20.052z"/>
	<path style="fill:#BBDEFB;" d="M19,22.5c0,0.276-0.225,0.5-0.5,0.5S18,22.776,18,22.5c0-0.207,0.141-0.336,0.225-0.395   c0.006-0.004,0.011-0.008,0.017-0.013L19,21.512V22.5z"/>
	<path style="fill:#303C42;" d="M19,4c-0.388,0-0.767,0.057-1.139,0.144C16.74,1.654,14.25,0,11.5,0C7.88,0,4.888,2.737,4.549,6.282   C3.06,6.865,2,8.307,2,10c0,0.231,0.034,0.469,0.084,0.716C0.834,11.517,0,12.909,0,14.5C0,16.981,2.019,19,4.5,19h1.523   l-0.382,0.292C5.233,19.583,5,20.022,5,20.5C5,21.327,5.673,22,6.5,22S8,21.327,8,20.5V19h6.023l-0.382,0.292   C13.233,19.583,13,20.022,13,20.5c0,0.827,0.673,1.5,1.5,1.5s1.5-0.673,1.5-1.5v-1.551c1.692-0.245,3-1.691,3-3.449   c0-0.539-0.133-1.044-0.351-1.5H19c2.757,0,5-2.243,5-5S21.757,4,19,4z"/>
	<path style="fill:#BBDEFB;" d="M7,20.5C7,20.776,6.775,21,6.5,21S6,20.776,6,20.5c0-0.207,0.141-0.337,0.225-0.396   c0.006-0.004,0.012-0.008,0.017-0.012L7,19.512V20.5z"/>
	<path style="fill:#BBDEFB;" d="M15,20.5c0,0.276-0.225,0.5-0.5,0.5S14,20.776,14,20.5c0-0.207,0.141-0.337,0.225-0.396   c0.006-0.004,0.012-0.008,0.017-0.012L15,19.512V20.5z"/>
	<path style="fill:#64B5F6;" d="M3,10c0-1.654,1.346-3,3-3c0.276,0,0.5-0.224,0.5-0.5S6.276,6,6,6C5.855,6,5.719,6.028,5.578,6.043   C6.017,3.171,8.512,1,11.5,1c2.323,0,4.429,1.378,5.41,3.461C16.668,4.572,16.434,4.7,16.21,4.85   c-0.229,0.154-0.29,0.465-0.135,0.694c0.155,0.229,0.465,0.29,0.694,0.135C17.429,5.235,18.2,5,19,5c2.206,0,4,1.794,4,4   s-1.794,4-4,4h-1.058c-0.287-0.281-0.624-0.508-0.994-0.677C16.608,9.313,14.061,7,11,7c-2.223,0-4.24,1.242-5.278,3.185   C5.325,10.073,4.916,10,4.5,10c-0.52,0-1.012,0.106-1.478,0.269C3.012,10.179,3,10.087,3,10z"/>
	<path style="fill:#64B5F6;" d="M15.5,18h-11C2.57,18,1,16.43,1,14.5S2.57,11,4.5,11c0.804,0,1.56,0.265,2.187,0.767   c0.217,0.174,0.531,0.138,0.703-0.078c0.173-0.215,0.138-0.53-0.078-0.703c-0.206-0.165-0.426-0.308-0.656-0.434   C7.537,8.992,9.186,8,11,8c2.412,0,4.428,1.73,4.88,4.038C15.754,12.025,15.63,12,15.5,12c-0.276,0-0.5,0.224-0.5,0.5   s0.224,0.5,0.5,0.5c1.378,0,2.5,1.122,2.5,2.5S16.878,18,15.5,18z"/>
	<path style="opacity:0.1;" d="M16.298,13.143c0.718,0.462,1.202,1.286,1.202,2.232C17.5,16.822,16.378,18,15,18h0.5   c1.378,0,2.5-1.122,2.5-2.5C18,14.402,17.284,13.478,16.298,13.143z"/>
	<path style="opacity:0.2;fill:#FFFFFF;" d="M1.5,14.5c0-1.852,1.451-3.358,3.274-3.477C4.683,11.016,4.593,11,4.5,11   C2.57,11,1,12.57,1,14.5S2.57,18,4.5,18H5C3.07,18,1.5,16.43,1.5,14.5z"/>
	<path style="opacity:0.1;" d="M19,5c-0.119,0-0.235,0.016-0.352,0.026C20.732,5.161,22.391,6.882,22.391,9   c0,2.122-1.666,3.847-3.757,3.975c0.004,0.009,0.01,0.016,0.015,0.025H19c2.206,0,4-1.794,4-4S21.206,5,19,5z"/>
	<path style="opacity:0.2;fill:#FFFFFF;" d="M11.5,8.5c1.261,0,2.407,0.481,3.285,1.263C13.872,8.683,12.515,8,11,8   c-1.814,0-3.463,0.992-4.344,2.553c0.202,0.11,0.393,0.241,0.577,0.382C8.13,9.445,9.734,8.5,11.5,8.5z"/>
	<path style="opacity:0.2;fill:#FFFFFF;" d="M6.202,6.044C6.841,3.428,9.191,1.5,12,1.5c1.508,0,2.919,0.588,3.996,1.565   C14.88,1.786,13.252,1,11.5,1C8.512,1,6.017,3.171,5.578,6.043C5.719,6.028,5.855,6,6,6C6.072,6,6.14,6.016,6.202,6.044z"/>
	<linearGradient id="SVGID_1_" gradientUnits="userSpaceOnUse" x1="1.8955" y1="9.3425" x2="21.9334" y2="18.6863">
		<stop offset="0" style="stop-color:#FFFFFF;stop-opacity:0.2"/>
		<stop offset="1" style="stop-color:#FFFFFF;stop-opacity:0"/>
	</linearGradient>
	<path style="fill:url(#SVGID_1_);" d="M3.722,20.052c-0.171-0.085-0.375-0.065-0.525,0.051l-1.556,1.189   C1.233,21.583,1,22.022,1,22.5C1,23.327,1.673,24,2.5,24S4,23.327,4,22.5v-2C4,20.31,3.892,20.136,3.722,20.052z M11.722,20.052   c-0.172-0.085-0.375-0.065-0.525,0.051l-1.556,1.189C9.233,21.583,9,22.022,9,22.5c0,0.827,0.673,1.5,1.5,1.5s1.5-0.673,1.5-1.5v-2   C12,20.31,11.892,20.136,11.722,20.052z M19.722,20.052c-0.172-0.085-0.375-0.065-0.525,0.051l-1.555,1.189   C17.233,21.582,17,22.021,17,22.5c0,0.827,0.673,1.5,1.5,1.5s1.5-0.673,1.5-1.5v-2C20,20.31,19.892,20.136,19.722,20.052z M19,4   c-0.388,0-0.767,0.057-1.139,0.144C16.74,1.654,14.25,0,11.5,0C7.88,0,4.888,2.737,4.549,6.282C3.06,6.865,2,8.307,2,10   c0,0.231,0.034,0.469,0.084,0.716C0.834,11.517,0,12.909,0,14.5C0,16.981,2.019,19,4.5,19h1.523l-0.382,0.292   C5.233,19.583,5,20.022,5,20.5C5,21.327,5.673,22,6.5,22S8,21.327,8,20.5V19h6.023l-0.382,0.292C13.233,19.583,13,20.022,13,20.5   c0,0.827,0.673,1.5,1.5,1.5s1.5-0.673,1.5-1.5v-1.551c1.692-0.245,3-1.691,3-3.449c0-0.539-0.133-1.044-0.351-1.5H19   c2.757,0,5-2.243,5-5S21.757,4,19,4z"/>
</g>
<g>
</g>
<g>
</g>
<g>
</g>
<g>
</g>
<g>
</g>
<g>
</g>
<g>
</g>
<g>
</g>
<g>
</g>
<g>
</g>
<g>
</g>
<g>
</g>
<g>
</g>
<g>
</g>
<g>
</g>

	<metadata>
		<rdf:RDF xmlns:rdf="http://www.w3.org/1999/02/22-rdf-syntax-ns#" xmlns:rdfs="http://www.w3.org/2000/01/rdf-schema#" xmlns:dc="http://purl.org/dc/elements/1.1/">
			<rdf:Description about="https://iconscout.com/legal#licenses" dc:title="weather; forcast; hard; rain; storm" dc:description="weather; forcast; hard; rain; storm" dc:publisher="Iconscout" dc:date="2017-03-22" dc:format="image/svg+xml" dc:language="en">
				<dc:creator>
					<rdf:Bag>
						<rdf:li>Alpár - Etele Méder</rdf:li>
					</rdf:Bag>
				</dc:creator>
			</rdf:Description>
		</rdf:RDF>
    </metadata></svg>
