<?xml version="1.0" encoding="UTF-8"?>
<svg xmlns="http://www.w3.org/2000/svg" xmlns:xlink="http://www.w3.org/1999/xlink" version="1.1" id="Layer_1" x="0px" y="0px" viewBox="0 0 24 24" style="enable-background:new 0 0 24 24;" xml:space="preserve">
<g>
	<path style="fill:#303C42;" d="M16.5,18.066V2.5C16.5,1.122,15.378,0,14,0s-2.5,1.122-2.5,2.5v15.566c-0.638,0.654-1,1.529-1,2.434   c0,1.93,1.57,3.5,3.5,3.5s3.5-1.57,3.5-3.5C17.5,19.595,17.138,18.72,16.5,18.066z"/>
	<path style="fill:#E6E6E6;" d="M14,23c-1.378,0-2.5-1.122-2.5-2.5c0-0.708,0.296-1.365,0.835-1.85   c0.105-0.095,0.165-0.23,0.165-0.372V2.5C12.5,1.673,13.173,1,14,1s1.5,0.673,1.5,1.5v15.778c0,0.142,0.06,0.276,0.165,0.372   c0.539,0.485,0.835,1.142,0.835,1.85C16.5,21.878,15.378,23,14,23z"/>
	<path style="opacity:0.2;fill:#FFFFFF;" d="M12,21c0-0.708,0.296-1.365,0.835-1.85C12.94,19.055,13,18.92,13,18.778V3   c0-0.827,0.673-1.5,1.5-1.5c0.285,0,0.549,0.084,0.777,0.223C15.013,1.292,14.542,1,14,1c-0.827,0-1.5,0.673-1.5,1.5v15.778   c0,0.142-0.06,0.276-0.165,0.372c-0.539,0.485-0.835,1.142-0.835,1.85c0,0.817,0.399,1.536,1.007,1.993   C12.193,22.075,12,21.562,12,21z"/>
	<path style="fill:#303C42;" d="M10,16H7c-0.276,0-0.5,0.224-0.5,0.5S6.724,17,7,17h3c0.276,0,0.5-0.224,0.5-0.5S10.276,16,10,16z"/>
	<path style="fill:#303C42;" d="M10,14H9c-0.276,0-0.5,0.224-0.5,0.5S8.724,15,9,15h1c0.276,0,0.5-0.224,0.5-0.5S10.276,14,10,14z"/>
	<path style="fill:#303C42;" d="M10,12H9c-0.276,0-0.5,0.224-0.5,0.5S8.724,13,9,13h1c0.276,0,0.5-0.224,0.5-0.5S10.276,12,10,12z"/>
	<path style="fill:#303C42;" d="M7,11h3c0.276,0,0.5-0.224,0.5-0.5S10.276,10,10,10H7c-0.276,0-0.5,0.224-0.5,0.5S6.724,11,7,11z"/>
	<path style="fill:#303C42;" d="M7,5h3c0.276,0,0.5-0.224,0.5-0.5S10.276,4,10,4H7C6.724,4,6.5,4.224,6.5,4.5S6.724,5,7,5z"/>
	<path style="fill:#303C42;" d="M10,8H9C8.724,8,8.5,8.224,8.5,8.5S8.724,9,9,9h1c0.276,0,0.5-0.224,0.5-0.5S10.276,8,10,8z"/>
	<path style="fill:#303C42;" d="M10,6H9C8.724,6,8.5,6.224,8.5,6.5S8.724,7,9,7h1c0.276,0,0.5-0.224,0.5-0.5S10.276,6,10,6z"/>
	<path style="fill:#D32F2F;" d="M14.5,19.654V10.5c0-0.276-0.224-0.5-0.5-0.5s-0.5,0.224-0.5,0.5v9.154   C13.207,19.828,13,20.134,13,20.5c0,0.552,0.448,1,1,1s1-0.448,1-1C15,20.134,14.793,19.828,14.5,19.654z"/>
	<linearGradient id="SVGID_1_" gradientUnits="userSpaceOnUse" x1="4.9045" y1="7.8103" x2="20.4078" y2="15.0396">
		<stop offset="0" style="stop-color:#FFFFFF;stop-opacity:0.2"/>
		<stop offset="1" style="stop-color:#FFFFFF;stop-opacity:0"/>
	</linearGradient>
	<path style="fill:url(#SVGID_1_);" d="M16.5,18.066V2.5C16.5,1.122,15.378,0,14,0s-2.5,1.122-2.5,2.5v15.566   c-0.638,0.654-1,1.529-1,2.434c0,1.93,1.57,3.5,3.5,3.5s3.5-1.57,3.5-3.5C17.5,19.595,17.138,18.72,16.5,18.066z M10,16H7   c-0.276,0-0.5,0.224-0.5,0.5S6.724,17,7,17h3c0.276,0,0.5-0.224,0.5-0.5S10.276,16,10,16z M10,14H9c-0.276,0-0.5,0.224-0.5,0.5   S8.724,15,9,15h1c0.276,0,0.5-0.224,0.5-0.5S10.276,14,10,14z M10,12H9c-0.276,0-0.5,0.224-0.5,0.5S8.724,13,9,13h1   c0.276,0,0.5-0.224,0.5-0.5S10.276,12,10,12z M7,11h3c0.276,0,0.5-0.224,0.5-0.5S10.276,10,10,10H7c-0.276,0-0.5,0.224-0.5,0.5   S6.724,11,7,11z M7,5h3c0.276,0,0.5-0.224,0.5-0.5S10.276,4,10,4H7C6.724,4,6.5,4.224,6.5,4.5S6.724,5,7,5z M10,8H9   C8.724,8,8.5,8.224,8.5,8.5S8.724,9,9,9h1c0.276,0,0.5-0.224,0.5-0.5S10.276,8,10,8z M10,6H9C8.724,6,8.5,6.224,8.5,6.5   S8.724,7,9,7h1c0.276,0,0.5-0.224,0.5-0.5S10.276,6,10,6z"/>
</g>
<g>
</g>
<g>
</g>
<g>
</g>
<g>
</g>
<g>
</g>
<g>
</g>
<g>
</g>
<g>
</g>
<g>
</g>
<g>
</g>
<g>
</g>
<g>
</g>
<g>
</g>
<g>
</g>
<g>
</g>

	<metadata>
		<rdf:RDF xmlns:rdf="http://www.w3.org/1999/02/22-rdf-syntax-ns#" xmlns:rdfs="http://www.w3.org/2000/01/rdf-schema#" xmlns:dc="http://purl.org/dc/elements/1.1/">
			<rdf:Description about="https://iconscout.com/legal#licenses" dc:title="weather; forcast; thermometer; thermo; meter; temperature" dc:description="weather; forcast; thermometer; thermo; meter; temperature" dc:publisher="Iconscout" dc:date="2017-03-22" dc:format="image/svg+xml" dc:language="en">
				<dc:creator>
					<rdf:Bag>
						<rdf:li>Alpár - Etele Méder</rdf:li>
					</rdf:Bag>
				</dc:creator>
			</rdf:Description>
		</rdf:RDF>
    </metadata></svg>
