<?xml version="1.0" encoding="UTF-8"?>
<svg xmlns="http://www.w3.org/2000/svg" xmlns:xlink="http://www.w3.org/1999/xlink" version="1.1" id="Layer_1" x="0px" y="0px" viewBox="0 0 24 24" style="enable-background:new 0 0 24 24;" xml:space="preserve">
<g>
	<path style="fill:#303C42;" d="M22.988,12H22.5c-4.216,0-5.058-0.947-6.734-2.834c-0.41-0.461-0.861-0.969-1.412-1.52   C11.627,4.92,9.645,4,6.5,4C5.764,4,5.201,4.765,4.796,5.939L0.1,12.2c-0.082,0.109-0.116,0.247-0.093,0.382   c0.022,0.135,0.099,0.255,0.212,0.332l4.028,2.737C4.599,18.085,5.333,20,6.5,20c0.824,0,1.625-0.611,2.553-1.318   C10.087,17.894,11.26,17,12.5,17c1.142,0,1.886,0.222,2.673,0.458C16.065,17.725,16.987,18,18.5,18   c2.674,0,4.422-0.438,4.923-1.233C23.784,16.193,24,15.159,24,14C24,13.401,24,12,22.988,12z M1.672,12.692l2.328-0.65   c0.001,0.768,0.035,1.544,0.099,2.299L1.672,12.692z M4.02,10.999l-2.237,0.624l2.468-3.29C4.127,9.178,4.052,10.085,4.02,10.999z"/>
	<path style="fill:#E6E6E6;" d="M8,12c0,1.987-0.198,3.534-0.456,4.681l-2.368-1.609C5.068,14.192,5,13.169,5,12   C5,9.416,5.33,7.559,5.699,6.401L6.674,5.1C7.174,5.576,8,7.902,8,12z"/>
	<path style="fill:#E6E6E6;" d="M5.399,16.433l1.869,1.27C6.987,18.547,6.69,19,6.5,19C6.23,19,5.745,18.123,5.399,16.433z"/>
	<path style="fill:#E53935;" d="M8.447,17.887C8.363,17.951,8.282,18.01,8.2,18.072C8.742,16.507,9,14.207,9,12   c0-2.651-0.371-5.442-1.161-6.924c1.203,0.133,2.31,0.507,3.55,1.359C11.775,7.615,12,9.259,12,11c0,2.159-0.337,4.141-0.883,5.26   C10.13,16.613,9.25,17.275,8.447,17.887z"/>
	<path style="fill:#FFFFFF;" d="M12.296,16.016C12.741,14.739,13,12.953,13,11c0-1.276-0.124-2.501-0.333-3.569   c0.314,0.277,0.639,0.581,0.98,0.922c0.535,0.535,0.974,1.029,1.372,1.477c0.26,0.293,0.505,0.566,0.749,0.823   C15.917,11.323,16,12.026,16,12.75c0,1.497-0.317,2.883-0.82,3.669C14.44,16.202,13.644,16,12.5,16   C12.431,16,12.365,16.012,12.296,16.016z"/>
	<path style="fill:#E53935;" d="M16.167,16.701c0.52-0.969,0.833-2.4,0.833-3.951c0-0.352-0.026-0.696-0.059-1.039   c0.714,0.514,1.571,0.885,2.812,1.094C19.91,13.383,20,14.057,20,14.75c0,0.882-0.321,1.721-0.654,2.23   C19.08,16.991,18.807,17,18.5,17C17.506,17,16.807,16.87,16.167,16.701z"/>
	<path style="fill:#FFFFFF;" d="M22.577,16.233c-0.097,0.154-0.654,0.482-2.055,0.654C20.813,16.227,21,15.459,21,14.75   c0-0.645-0.085-1.248-0.207-1.817C21.304,12.976,21.866,13,22.5,13h0.394C22.934,13.098,23,13.359,23,14   C23,14.949,22.834,15.826,22.577,16.233z"/>
	<path style="opacity:0.1;" d="M5.657,16.608l-0.258-0.175c0.141,0.69,0.305,1.236,0.469,1.651   C5.785,17.638,5.714,17.143,5.657,16.608z"/>
	<path style="opacity:0.1;" d="M5.5,13.5c0-3.866,0.672-7,1.5-7c0.143,0,0.281,0.099,0.411,0.273C7.166,5.88,6.891,5.306,6.674,5.1   L5.699,6.401C5.33,7.559,5,9.416,5,12c0,1.169,0.068,2.192,0.176,3.072l0.378,0.257C5.52,14.745,5.5,14.134,5.5,13.5z"/>
	<path style="opacity:0.2;fill:#FFFFFF;" d="M22.5,14h0.488c0.004,0,0.007,0.002,0.012,0.002c0-0.001,0-0.001,0-0.002   c0-0.641-0.066-0.902-0.106-1H22.5c-0.634,0-1.196-0.024-1.707-0.067c0.07,0.325,0.121,0.664,0.158,1.012   C21.412,13.98,21.922,14,22.5,14z"/>
	<path style="opacity:0.2;fill:#FFFFFF;" d="M19.941,13.828c-0.042-0.36-0.103-0.708-0.189-1.023   c-1.241-0.209-2.098-0.58-2.812-1.094c0.023,0.243,0.032,0.491,0.042,0.738C17.736,13.138,18.555,13.598,19.941,13.828z"/>
	<path style="opacity:0.2;fill:#FFFFFF;" d="M14.353,9.646c0.551,0.551,1.002,1.058,1.412,1.52c0.037,0.042,0.072,0.08,0.108,0.121   c-0.033-0.212-0.06-0.427-0.107-0.633c-0.244-0.257-0.489-0.531-0.749-0.823c-0.398-0.448-0.836-0.941-1.372-1.477   c-0.341-0.341-0.666-0.645-0.98-0.922c0.052,0.262,0.098,0.535,0.138,0.815C13.303,8.652,13.811,9.104,14.353,9.646z"/>
	<path style="opacity:0.2;fill:#FFFFFF;" d="M11.645,7.394c-0.075-0.344-0.161-0.666-0.257-0.959   c-1.24-0.852-2.346-1.226-3.55-1.359c0.159,0.299,0.297,0.662,0.423,1.055C9.484,6.311,10.563,6.704,11.645,7.394z"/>
	<path style="opacity:0.1;" d="M9.053,16.682c-0.2,0.152-0.393,0.298-0.583,0.437c-0.081,0.338-0.169,0.662-0.271,0.954   c0.083-0.063,0.163-0.122,0.247-0.186c0.803-0.612,1.683-1.273,2.671-1.627c0.146-0.3,0.276-0.667,0.39-1.078   C10.635,15.481,9.807,16.108,9.053,16.682z"/>
	<path style="opacity:0.1;" d="M15.173,15.458c-0.767-0.23-1.499-0.443-2.59-0.454c-0.085,0.363-0.18,0.703-0.287,1.012   C12.365,16.012,12.431,16,12.5,16c1.144,0,1.94,0.202,2.68,0.419c0.148-0.231,0.273-0.525,0.386-0.848   C15.435,15.533,15.301,15.496,15.173,15.458z"/>
	<path style="opacity:0.1;" d="M18.5,16c-0.789,0-1.414-0.077-1.962-0.186c-0.108,0.323-0.231,0.624-0.371,0.887   C16.807,16.87,17.506,17,18.5,17c0.307,0,0.58-0.009,0.846-0.02c0.173-0.265,0.341-0.621,0.464-1.025   C19.399,15.982,18.969,16,18.5,16z"/>
	<path style="opacity:0.1;" d="M20.867,15.85c-0.083,0.359-0.201,0.712-0.345,1.038c1.401-0.172,1.958-0.501,2.055-0.654   c0.136-0.216,0.244-0.57,0.318-0.992C22.438,15.52,21.752,15.724,20.867,15.85z"/>
	<linearGradient id="SVGID_1_" gradientUnits="userSpaceOnUse" x1="1.5008" y1="9.1711" x2="22.4319" y2="18.9314">
		<stop offset="0" style="stop-color:#FFFFFF;stop-opacity:0.2"/>
		<stop offset="1" style="stop-color:#FFFFFF;stop-opacity:0"/>
	</linearGradient>
	<path style="fill:url(#SVGID_1_);" d="M22.988,12H22.5c-4.216,0-5.058-0.947-6.734-2.834c-0.41-0.461-0.861-0.969-1.412-1.52   C11.627,4.92,9.645,4,6.5,4C5.764,4,5.201,4.765,4.796,5.939L0.1,12.2c-0.082,0.109-0.116,0.247-0.093,0.382   c0.022,0.135,0.099,0.255,0.212,0.332l4.028,2.737C4.599,18.085,5.333,20,6.5,20c0.824,0,1.625-0.611,2.553-1.318   C10.087,17.894,11.26,17,12.5,17c1.142,0,1.886,0.222,2.673,0.458C16.065,17.725,16.987,18,18.5,18   c2.674,0,4.422-0.438,4.923-1.233C23.784,16.193,24,15.159,24,14C24,13.401,24,12,22.988,12z M1.672,12.692l2.328-0.65   c0.001,0.768,0.035,1.544,0.099,2.299L1.672,12.692z M4.02,10.999l-2.237,0.624l2.468-3.29C4.127,9.178,4.052,10.085,4.02,10.999z"/>
</g>
<g>
</g>
<g>
</g>
<g>
</g>
<g>
</g>
<g>
</g>
<g>
</g>
<g>
</g>
<g>
</g>
<g>
</g>
<g>
</g>
<g>
</g>
<g>
</g>
<g>
</g>
<g>
</g>
<g>
</g>

	<metadata>
		<rdf:RDF xmlns:rdf="http://www.w3.org/1999/02/22-rdf-syntax-ns#" xmlns:rdfs="http://www.w3.org/2000/01/rdf-schema#" xmlns:dc="http://purl.org/dc/elements/1.1/">
			<rdf:Description about="https://iconscout.com/legal#licenses" dc:title="weather; forcast; wind; windy; power; direction" dc:description="weather; forcast; wind; windy; power; direction" dc:publisher="Iconscout" dc:date="2017-03-22" dc:format="image/svg+xml" dc:language="en">
				<dc:creator>
					<rdf:Bag>
						<rdf:li>Alpár - Etele Méder</rdf:li>
					</rdf:Bag>
				</dc:creator>
			</rdf:Description>
		</rdf:RDF>
    </metadata></svg>
